<svg xmlns="http://www.w3.org/2000/svg" width="32" height="29" viewBox="0 0 32 29">
    <path fill="#383838" fill-rule="nonzero" d="M0 1h32c-.497 8.588-6.96 15.457-15.03 15.97L16.968 27h4.077c.474 0 .864.386.917.883l.006.117c0 .513-.356.936-.815.993l-.108.007H10.892c-.51 0-.923-.448-.923-1 0-.513.357-.936.816-.993l.107-.007h4.077V16.965C7.032 16.43.664 9.744.022 1.335L0 1zm0 2V1L1.996.868l.02.316c.57 7.45 6.176 13.32 13.088 13.787.316.021.611.115.869.265.258-.149.553-.242.87-.262 7.036-.446 12.72-6.486 13.16-14.088L32 3.001H0z"/>
</svg>
