<svg xmlns="http://www.w3.org/2000/svg" width="24" height="24" viewBox="0 0 24 24">
    <defs>
        <linearGradient id="tkk3auqbla" x1="6.435%" x2="84.503%" y1="50%" y2="50%">
            <stop offset="0%" stop-color="#FA0"/>
            <stop offset="100%" stop-color="#EE7B00"/>
        </linearGradient>
    </defs>
    <g fill="none" fill-rule="evenodd">
        <g>
            <g>
                <g>
                    <g>
                        <g>
                            <g>
                                <g>
                                    <path fill="url(#tkk3auqbla)" d="M6.76 2.261c1.93-3.386 5.966 1.595 7.931 3.168.894.715 2.103 2.78 3.462 2.31 1.033-.359 1.887-1.884 2.591-2.672.452-.504 2.163-1.911 1.9-.28-.254 1.577-1.29 1.913-2.232 3.14-.194.253.487 1.039.941 1.916.768 1.479 1.622 2.974-.397 1.58-.852-.589-2.296-2.541-3.428-2.424-.372.038-2.782 1.507-2.28 1.706.581.23 2.31 1.256 1.91 1.978-.399.722-2.897-.202-3.28-.503-.983-.764-1.566-.782-2.769-.368-.45.156-4.12 1.145-4.279.87.504.883 1.531 1.132 1.658 2.271.186 1.671-1.976-1.123-2.176-1.395C5.172 12.017.218 10.313.57 8.211c.872-1.608 4.75-3.425 6.189-5.95z" transform="translate(-808 -257) translate(345 186) translate(461 30) translate(2 41) matrix(-1 0 0 1 23 4)"/>
                                    <path fill="#2A2A2A" d="M5.29 13.347c.309.483 2.247 2.876 2.826 2.56.914-.502-.611-2.274-1.067-2.51 1.827.19 2.25 1.519 1.432 3.044-.477.889-3.004-2.501-3.191-3.094zm12.645.275c.276 1.347-3.803-.472-4.332-.94.989.505 2.415.953 3.538.93.76-.018-1.173-1.751-2.011-1.725 1.685-.716 2.48.139 2.805 1.735zM0 8.962c.49.72 2.162 1.721 2.887 2.388 1.356 1.25 3.181 1.747 4.992 1.766 3.646.04 6.549-2.272 9.691-3.792-2.58 2.103-6.08 3.97-9.385 4.022-1.984.03-4.075-.275-5.603-1.657C2.343 11.474-.039 9.103 0 8.962zM22.424 5.99c-.473.966-1.368 1.794-2.102 2.577.813 1.201 2.307 2.821 2.126 4.399-.467-1.14-1.274-3.918-2.541-4.443.184-.175 2.915-3.654 1.752-3.648-1.214.004-2.88 1.814-3.782 2.7l-.108.105.559-.571c.958-.956 1.966-1.854 3.013-2.72 1.42-1.174 1.561.623 1.083 1.6zm-4.476 3.544c.855.861 2.722 2.338 3.968 3.241-.899-.21-2.958-2.095-3.968-3.241zM5.475 5.53c1.502 2.06 1.711 4.196-.563 5.91.775-.972 1.46-2.17 1.373-3.403-.066-.91-.816-1.6-.81-2.507zM17.76 7.833c-1.294.092-3.54-1.945-4.687-2.476-1.87-.868-3.966-1.489-6.045-1.371-1.829.103-3.406.96-4.691 2.235C2.058 6.498.026 8.3.024 8.581c-.3-.273 2.305-2.79 2.637-3.073C3.975 4.394 5.707 3.746 7.42 3.64c3.82-.238 7.372 2.045 10.34 4.193zM4.912 7.818c-.069.936-1.294.942-1.822.388l-.067-.079.102.107c.737.7 1.18-.398 1.787-.416zm-.026-.513c-.102.197-.241.332-.396.414-.534.955-1.963.36-1.597-.691.08-.228.205-.377.353-.46l.071-.035c.443-.932 1.799-.204 1.57.772zM3.321 6.53c-.02.037-.036.075-.05.116-.284.816.514 1.357 1.135 1.11l.084-.038.018-.033c.181-.768-.621-1.383-1.187-1.155zm.997-.48c-1.052-.598-1.092.687-1.687.912-.248-.949 1.027-1.352 1.687-.912zm6.286-5.12c1.528 1.247 3.04 2.708 4.321 4.217.009-.011-4.287-3.546-4.776-3.828-2.92-1.689-2.481.574-4.67 1.83C6.438.562 8.046-1.157 10.604.931z" transform="translate(-808 -257) translate(345 186) translate(461 30) translate(2 41) matrix(-1 0 0 1 23 4)"/>
                                    <path fill="#1A1919" d="M4.946 7.266c.255-.973-1.165-1.726-1.563-.674-.385 1.016 1.035 1.627 1.563.674" transform="translate(-808 -257) translate(345 186) translate(461 30) translate(2 41) matrix(-1 0 0 1 23 4)"/>
                                    <path fill="#FFFFFE" d="M4.95 7.246c.236-.98-1.2-1.7-1.574-.636-.362 1.027 1.07 1.603 1.575.636l-.866-.567" transform="translate(-808 -257) translate(345 186) translate(461 30) translate(2 41) matrix(-1 0 0 1 23 4)"/>
                                    <path fill="#2A2A2A" d="M3.87 7.08c1.225.551.04-1.233 0 0" transform="translate(-808 -257) translate(345 186) translate(461 30) translate(2 41) matrix(-1 0 0 1 23 4)"/>
                                </g>
                            </g>
                        </g>
                    </g>
                </g>
            </g>
        </g>
    </g>
</svg>
