<?xml version="1.0" encoding="UTF-8"?>
<svg width="24px" height="33px" viewBox="0 0 24 33" version="1.1" xmlns="http://www.w3.org/2000/svg" xmlns:xlink="http://www.w3.org/1999/xlink">
    <!-- Generator: Sketch 60 (88103) - https://sketch.com -->
    <title>Function Venue</title>
    <desc>Created with Sketch.</desc>
    <g id="Page-1" stroke="none" stroke-width="1" fill="none" fill-rule="evenodd">
        <g id="2a-coming-soon" transform="translate(-697.000000, -540.000000)" fill="#383838" fill-rule="nonzero">
            <g id="Main-Categories" transform="translate(397.000000, 538.000000)">
                <g id="Function-Venue" transform="translate(231.000000, 2.587300)">
                    <g id="Group-6">
                        <g id="Function-Venue" transform="translate(66.000000, 0.000000)">
                            <path d="M15,0 C21.627417,0 27,5.7307552 27,12.8 C27,19.8692448 15,32 15,32 L14.2267169,31.1920871 C11.5731293,28.3664719 3,18.775195 3,12.8 C3,5.7307552 8.372583,0 15,0 Z M15,2 C9.50703504,2 5,6.80750404 5,12.8 C5,14.297626 5.77746721,16.4102638 7.23608722,18.9144795 C8.13994352,20.4662553 9.2750865,22.1211907 10.587708,23.83475 C11.6520588,25.2242047 12.7827048,26.5878913 13.9244401,27.8849316 L14.7533868,28.8130487 L15,29.083 L15.3896295,28.6548312 C16.7623851,27.1323352 18.135071,25.5020957 19.412292,23.83475 C20.7249135,22.1211907 21.8600565,20.4662553 22.7639128,18.9144795 C24.2225328,16.4102638 25,14.297626 25,12.8 C25,6.80750404 20.492965,2 15,2 Z" id="Oval"></path>
                            <path d="M14.9365007,6.93650071 C12.175077,6.93650071 9.93650071,9.17507696 9.93650071,11.9365007 C9.93650071,14.6979245 12.175077,16.9365007 14.9365007,16.9365007 C17.6979245,16.9365007 19.9365007,14.6979245 19.9365007,11.9365007 C19.9365007,9.17507696 17.6979245,6.93650071 14.9365007,6.93650071 Z M14.9365007,8.93650071 C16.593355,8.93650071 17.9365007,10.2796465 17.9365007,11.9365007 C17.9365007,13.593355 16.593355,14.9365007 14.9365007,14.9365007 C13.2796465,14.9365007 11.9365007,13.593355 11.9365007,11.9365007 C11.9365007,10.2796465 13.2796465,8.93650071 14.9365007,8.93650071 Z" id="Oval"></path>
                        </g>
                    </g>
                </g>
            </g>
        </g>
    </g>
</svg>