<svg xmlns="http://www.w3.org/2000/svg" xmlns:xlink="http://www.w3.org/1999/xlink" width="40" height="40" viewBox="0 0 40 40">
    <defs>
        <circle id="b" cx="20" cy="20" r="19"/>
        <filter id="a" width="471.1%" height="471.1%" x="-185.5%" y="-185.5%" filterUnits="objectBoundingBox">
            <feMorphology in="SourceAlpha" operator="dilate" radius="1.5" result="shadowSpreadOuter1"/>
            <feOffset in="shadowSpreadOuter1" result="shadowOffsetOuter1"/>
            <feGaussianBlur in="shadowOffsetOuter1" result="shadowBlurOuter1" stdDeviation="22"/>
            <feComposite in="shadowBlurOuter1" in2="SourceAlpha" operator="out" result="shadowBlurOuter1"/>
            <feColorMatrix in="shadowBlurOuter1" values="0 0 0 0 0.963598279 0 0 0 0 0.963598279 0 0 0 0 0.963598279 0 0 0 1 0"/>
        </filter>
    </defs>
    <g fill="none" fill-rule="evenodd">
        <g>
            <use fill="#000" filter="url(#a)" xlink:href="#b"/>
            <circle cx="20" cy="20" r="18.5" fill="#FFF" stroke="#EFEFF0" stroke-linejoin="square"/>
        </g>
        <g fill="#383838" fill-rule="nonzero" transform="translate(11 11)">
            <path d="M11.91 0H5.415A5.415 5.415 0 0 0 0 5.414v6.497a5.415 5.415 0 0 0 5.414 5.414h6.497a5.415 5.415 0 0 0 5.414-5.414V5.414A5.415 5.415 0 0 0 11.911 0zm3.79 11.91c0 2.09-1.7 3.79-3.79 3.79H5.415c-2.09 0-3.79-1.7-3.79-3.79V5.415c0-2.09 1.7-3.79 3.79-3.79h6.497c2.09 0 3.79 1.7 3.79 3.79v6.497z"/>
            <path d="M8.663 4.331a4.331 4.331 0 1 0 0 8.663 4.331 4.331 0 0 0 0-8.663zm0 7.039a2.71 2.71 0 0 1-2.708-2.707 2.71 2.71 0 0 1 2.708-2.708 2.71 2.71 0 0 1 2.707 2.708 2.71 2.71 0 0 1-2.707 2.707z"/>
            <circle cx="13.355" cy="3.97" r="1"/>
        </g>
    </g>
</svg>
