<svg xmlns="http://www.w3.org/2000/svg" width="234" height="116" viewBox="0 0 234 116">
    <defs>
        <linearGradient id="a" x1="6.435%" x2="84.503%" y1="50%" y2="50%">
            <stop offset="0%" stop-color="#FA0"/>
            <stop offset="100%" stop-color="#EE7B00"/>
        </linearGradient>
    </defs>
    <g fill="none" fill-rule="evenodd">
        <path fill="#33988D" d="M172.934 80.151c2.506 1.147 3.601 3.207 2.988 5.623-.518 2.043-2.644 3.549-4.842 3.427-2.247-.125-4.775-2.324-4.99-4.416-.173-1.681.71-2.845 2.001-3.765-2.197-.761-5.565 1.006-6.434 3.342-.79 2.131.387 4.442 2.87 5.38 1.982.75 4.034 1.3 6.027 2.022 5.295 1.917 8.049 5.464 7.87 10.054-.244 6.332-5.158 12.4-11.203 13.714-3.785.824-7.51.678-10.94-1.402-2.956-1.792-3.995-5.518-2.451-8.457 1.591-3.03 5.499-4.304 8.54-2.783 2.217 1.107 3.36 3.37 3.02 5.983-.268 2.063-1.66 3.54-3.77 4-1.417.308-2.66-.166-3.856-.88-.436-.261-.742-.794-1.536-.712.735 1.75 2.039 2.583 3.692 2.902 3.403.657 6.728.658 9.5-1.867 3.657-3.331 2.776-8.624-1.742-10.52-2.17-.91-4.437-1.58-6.62-2.458-5.326-2.142-7.154-6.766-4.856-12.134 2.698-6.312 10.845-9.744 16.732-7.053zm21.87-12.05c.842.011.768.502.694 1.092-.404 3.172-.778 6.346-1.18 9.519-.262 2.087-.203 2.147 1.882 1.605.29-.075.576-.166.867-.239 1.941-.49 2.72.279 2.472 2.345-.08.673-.563.737-.992.847-.696.179-1.433.419-2.125.35-1.9-.183-2.387.776-2.515 2.48-.464 6.14-1.059 12.269-1.554 18.405-.096 1.194-.15 2.416.186 3.603.383 1.36 1.103 2.455 2.557 2.762 1.505.319 2.873-.055 3.957-1.202 1.984-2.097 2.145-5.094.403-7.609-.287-.414-.65-.76-.145-1.23.385-.357.805-.467 1.318-.218 1.23.595 1.67 1.69 1.826 2.93.229 1.804-.246 3.473-1.148 5.024-1.989 3.42-6.947 5.583-10.914 4.771-3.954-.807-6.773-4.108-7.429-8.761-.926-6.571-.459-13.141.172-19.696.121-1.28-.022-1.682-1.322-1.272-.844.264-1.445-.122-1.522-1.02-.096-1.09.831-.683 1.258-.643 1.563.147 2.066-.502 2.165-2.043.215-3.302 1.018-6.526 1.665-9.704-.607-.636-1.323.767-1.598-.399-.203-.865.442-1.143 1.14-1.299 3.272-.732 6.58-.443 9.882-.399zM15.006 69.283c-.408 2.727-.69 5.474-.992 8.217-.111 1.001-.136 2.013-.21 3.191 1.297-.317 2.382-.582 3.464-.85.689-.17 1.575-.54 1.515.674-.048.94 1.066 2.385-.874 2.713-.995.169-1.998.357-3.003.391-.921.031-1.25.462-1.322 1.31-.573 6.817-1.165 13.631-1.728 20.45-.044.528.07 1.075.145 1.609.303 2.178 1.246 3.393 2.837 3.683 1.885.342 3.818-.643 4.657-2.568.928-2.133 1.18-4.289-.534-6.226-.336-.38-.661-.752-.155-1.218.438-.403.904-.467 1.468-.174 1.2.624 2 2.585 1.715 4.44-.29 1.884-.99 3.625-2.322 4.975-2.705 2.741-6.06 3.815-9.792 3.094-3.694-.713-5.931-3.257-6.799-6.844-1.093-4.522-1.142-9.155-.846-13.785.165-2.576.35-5.152.583-7.722.091-1.003-.067-1.497-1.21-1.134-.91.288-1.588-.108-1.603-1.082-.015-1.012.9-.596 1.35-.566 1.317.089 1.907-.363 2.011-1.757.222-2.993.86-5.927 1.473-8.86.106-.513.674-1.713-.846-1.045-.423.185-.481-.172-.496-.482-.021-.43-.023-.88.509-1.01.862-.21 1.728-.52 2.6-.55 2.437-.09 4.878-.039 7.317-.082.88-.016 1.243.167 1.088 1.208zM149.99 94.587c-.112 1.293-.83 1.92-2.126 1.95-.914.022-1.829.005-2.742.005a7.728 7.728 0 0 1-.011.144c-2.602-.244-5.207-.46-7.805-.745-.845-.093-1.341-.098-1.41.976-.159 2.426-.14 4.845-.141 7.274-.002 4.578 4.592 7.109 9.409 5.282 2.738-1.038 4.093-3.372 3.717-6.224-.09-.698-.64-1.71.51-1.938 1.148-.226 1.51.801 1.757 1.667.557 1.947-.908 5.124-3.125 6.364-9.36 5.24-20.672 1.329-23-9.912-1.757-8.476 4.279-16.094 13.148-17.016 7.617-.792 12.432 5.095 11.82 12.173zm-73.336-.829c-.084 2.187-.628 2.725-2.852 2.798-3.235.106-6.46-.122-9.65-.583-1.318-.19-1.795.06-1.739 1.362.04.887-.088 1.78-.145 2.762-.295 1.759-.023 3.606.252 5.414.352 2.333 1.896 3.763 4.27 4.331 5.274 1.265 9.16-1.997 8.526-7.185-.066-.553-.181-1.147.5-1.35.782-.232 1.248.304 1.597.891.877 1.474.183 4.408-1.48 6.067-2.066 2.06-4.771 2.821-7.563 3.218-8 1.136-15.376-4.118-16.862-11.924-1.486-7.806 3.476-15.1 11.487-16.887 7.65-1.708 13.95 3.406 13.66 11.086zm149.07 7.283c2.659.035 4.613 2.248 4.57 5.177-.04 2.89-2.01 4.819-4.897 4.795-3.048-.023-5.053-1.91-4.978-4.687.076-2.886 2.522-5.32 5.305-5.285zm-119.12-29.535c.078 4.534.236 9.066.36 13.6.015.574.002 1.15.002 1.917 2.137-1.084 4.064-2.172 6.298-1.695 3.58.762 5.964 3 6.988 6.519 1.372 4.715.851 9.355-1.25 13.748-2.212 4.63-8.272 6.748-12.866 4.542-1.076-.518-2.093-.77-3.251-.634a28.541 28.541 0 0 1-6.611.026c-.98-.11-1.605-.37-1.608-1.496.859-.203 1.702.259 2.743.245-.984-5.147-.848-10.324-.81-15.493.05-6.71.243-13.418.968-20.094.096-.888-.17-1.036-.936-.985-2.046.138-3.892.974-5.87 1.733.131-1.54.672-2.303 2.255-2.521 3.972-.55 7.961-.753 11.951-1.03 1.317-.093 1.616.416 1.637 1.618zm-84.558-3.3c.125.056.246.106.351.128 3.019.63 6.061.879 9.14.738 2.286-.104 2.346-.09 2.399 2.277.09 4.03.098 8.061.134 12.093.01 1.064.002 2.127.002 3.468 1.028-.676 1.834-1.253 2.683-1.756 4.8-2.842 9.181-.854 10.23 4.628.454 2.368.613 4.77.672 7.17.066 2.766.005 5.536-.011 8.303-.016 2.641-.024 2.634 2.456 1.764.323-.114.771-.662 1 .064.153.487.341 1.084-.36 1.39-.165.072-.34.122-.515.165-3.71.912-7.472 1.175-11.279.912-1.18-.081-.845-.875-.816-1.58.24-5.71.425-11.425-.154-17.126-.13-1.267-.117-2.82-1.899-3.005-1.295-.134-2.022 1.058-2.073 3.166-.129 5.29-.473 10.58-.052 15.874.038.48-.131 1.211.118 1.398 2.08 1.564 0 1.56-.718 1.785-3.142.986-6.386 1.056-9.647.87-.994-.057-1.53-.537-1.605-1.529.116-.065.211-.143.32-.175.81-.236 1.808.874 2.32.073.418-.657.18-1.742.205-2.638.196-7.167-.407-14.307-.716-21.458-.188-4.39-.16-8.784.327-13.16.13-1.164.094-2.055-1.498-1.652-.309.08-.69-.01-1.014-.114v-2.072zm85.629 19.197c-1.06.279-1.208 1.05-1.213 1.97-.01 1.669-.134 3.336-.221 5.004-.211 4.051-.447 8.1-.63 12.153-.033.724-.232 1.59.945 1.872 1.102.264 2.057.11 2.795-.705.542-.6.82-1.337 1.019-2.099.73-2.805.808-5.665.737-8.53 0-1.371.074-2.748-.02-4.115-.102-1.487-.424-2.956-1.159-4.302-.455-.835-1.069-1.56-2.253-1.248zm126.322-14.386c-.035 1.77-.422 3.464-1.068 5.096-2.385 6.016-5.07 11.922-6.353 18.342-.202 1.006-.832.808-1.438.844-.8.047-.758-.55-.773-1.102-.167-5.714-1.628-11.191-2.863-16.709-.59-2.632-.71-5.25.159-7.84.852-2.54 2.415-4.44 4.955-5.193 4.389-1.303 7.495 1.5 7.381 6.562zM64.119 85.222c-.884 2.81-1.042 5.751-1.141 8.699-.023.681.23.937.824 1.09 3.214.83 3.36.72 3.457-3.032.011-.43.001-.86.001-1.065.101-2.012.01-3.792-.377-5.527-.17-.754-.4-1.674-1.227-1.786-.964-.13-1.29.83-1.537 1.621zm74.305-1.63c-.927-.054-1.25.913-1.491 1.715-.8 2.646-.971 5.406-1.096 8.177-.05 1.088.232 1.486 1.231 1.618 3.075.404 2.694 1.137 3.028-2.827.046-.55.007-1.108.007-1.212a20.812 20.812 0 0 0-.358-5.585c-.159-.81-.387-1.834-1.32-1.887zM21.73 68.072l-.031-.011.031.011-.066-.022zm109.78-10.5c.065 5.334-3.701 9.16-9.04 9.187-5.303.026-8.836-3.497-8.865-8.838-.029-5.594 3.843-9.773 9.135-9.86 4.964-.08 8.704 3.975 8.77 9.51zM84.206 27.16c2.812 2.014 4.175 5.094 5.1 8.33 2.4 8.396 2.04 16.554-2.678 24.103-4.108 6.573-11.823 8.486-17.68 4.402-3.905-2.724-5.667-6.9-6.665-11.45-.416-1.903-.447-3.845-.541-5.402.131-6.86 1.753-12.83 6.033-17.819 4.087-4.762 11.42-5.752 16.43-2.164zm60.532 12.127c1.177.67 1.715 1.707 1.565 3.025-.156 1.364-.886 2.427-2.218 2.825-1.247.373-2.28-.198-2.895-1.301-.677-1.214-.302-2.36.599-3.31.352-.371.875-.579 1.533-.994-2.555-.047-3.927.983-3.814 3.112.123 2.338.677 4.653 1.045 6.978.095.603.474.584.937.452.696-.2 1.397-.378 2.1-.547.354-.086.848-.518.96.231.06.397.062.872-.47 1.048-.116.038-.24.054-.348.106-.887.418-2.348-.313-2.704.869-.27.891.232 2.004.338 3.025.246 2.405.434 4.817.706 7.22.077.677-.1 1.802 1.269 1.268.273-.107.455-.02.477.294.018.276-.13.48-.377.543-2.566.653-5.06 1.592-7.695 1.986-.513.076-.847-.051-.877-.602-.028-.51.372-.595.737-.559 1.816.18 1.527-.829 1.175-1.97-.837-2.723-1.168-5.553-1.616-8.356-.136-.854.294-2.13-1.803-1.643 1.449-.597 1.589-1.3 1.561-2.381-.102-4.053.614-7.857 4.076-10.565 1.844-1.441 4.012-1.737 5.74-.754zm-22.342 10.021l-.162.007c-.964.08-1.449.856-1.605 1.796-.123.746-.165 1.506-.233 2.156.327 3.786.568 7.465 1.702 11.002.398 1.243 1.071 2.114 2.478 1.805 1.34-.294 1.969-1.182 1.992-2.64.024-1.479-.181-2.925-.396-4.367-.425-2.832-.962-5.644-2.005-8.32-.306-.788-.85-1.36-1.615-1.431l-.156-.008zM54.932 26.973c-.114 11.032.608 22.048.667 33.077.007 1.29.304 1.87 1.68 1.82.948-.034 1.903.232 2.86.286.78.045 1.025.394.98 1.14-.05.881-.673.676-1.17.68-3.244.02-6.49.031-9.734.031-3.37.001-6.73.262-10.037.837-1.743.303-1.532-.952-1.802-1.765-.446-1.345.779-.886 1.3-.944a39.173 39.173 0 0 1 4.311-.217c.859.001 1.292-.136 1.288-1.158-.035-9.89-.02-19.779-.02-29.994-2.29 1.204-3.658 3.076-5.43 4.457-1.291-2.323-1.246-2.54.815-3.83 3.976-2.486 8.052-4.727 12.73-5.683 1.26-.257 1.574.03 1.562 1.263zm21.513 1.532c-.564.853-.87 1.827-1.003 2.856-1.204 9.297-1.475 18.643-1.307 28.01.014.758.246 1.56.557 2.254.777 1.734 2.07 1.855 3.174.346.604-.824.925-1.781 1.09-2.812.927-5.793.943-11.66 1.295-16.953 0-3.385.038-6.226-.015-9.063-.03-1.567-.185-3.15-.97-4.54-.817-1.45-1.908-1.476-2.82-.098z"/>
        <path fill="url(#a)" d="M178.486 7.776c6.368-11.069 19.689 5.216 26.176 10.358 2.95 2.337 6.939 9.09 11.425 7.549 3.41-1.171 6.228-6.158 8.552-8.733 1.492-1.65 7.14-6.25 6.27-.92-.838 5.16-4.259 6.256-7.366 10.27-.639.826 1.606 3.395 3.107 6.261 2.533 4.835 5.351 9.722-1.311 5.166-2.812-1.924-7.577-8.307-11.316-7.924-1.225.126-9.181 4.927-7.526 5.578 1.921.754 7.624 4.104 6.307 6.465-1.316 2.362-9.56-.66-10.829-1.643-3.242-2.498-5.165-2.558-9.136-1.203-1.488.509-13.6 3.742-14.122 2.846 1.663 2.884 5.054 3.7 5.473 7.423.612 5.463-6.523-3.671-7.184-4.56-3.764-5.04-20.112-10.61-18.947-17.483 2.878-5.255 15.678-11.195 20.427-19.45z"/>
        <path fill="#2A2A2A" d="M173.267 43.45c1.008 1.568 7.334 9.36 9.223 8.332 2.984-1.635-1.995-7.405-3.483-8.173 5.964.62 7.345 4.945 4.676 9.91-1.537 2.855-9.591-7.857-10.389-9.991l-.027-.078zm41.273.892c.9 4.386-12.414-1.537-14.14-3.06 3.227 1.643 7.882 3.102 11.547 3.025 2.48-.056-3.827-5.697-6.563-5.613 5.5-2.33 8.093.452 9.156 5.648zm-58.538-15.17c1.597 2.346 7.055 5.605 9.42 7.774 4.429 4.07 10.385 5.688 16.294 5.75 11.902.13 21.376-7.395 31.634-12.343-8.425 6.845-19.844 12.92-30.634 13.091-6.477.097-13.3-.896-18.287-5.394-.78-.701-8.556-8.418-8.427-8.878zm73.19-9.675c-1.544 3.148-4.466 5.841-6.86 8.39 2.652 3.91 7.53 9.184 6.94 14.32-1.527-3.712-4.16-12.752-8.295-14.462.6-.571 9.515-11.895 5.72-11.877-4.145.014-9.901 6.454-12.73 9.165 3.672-3.833 7.59-7.361 11.69-10.745 4.636-3.824 5.096 2.026 3.536 5.21zm-14.609 11.537c2.79 2.804 8.883 7.612 12.95 10.552-2.932-.683-9.655-6.821-12.95-10.552zM173.871 18c4.9 6.707 5.584 13.661-1.838 19.241 2.53-3.164 4.767-7.062 4.48-11.08-.214-2.963-2.66-5.209-2.642-8.161zm-14.229 11.099l-.053.023c-.21.066-.688.057-1.232.03l-.087-.006h.045c.536-.002.972-.013 1.289-.042l.038-.005zm-1.468.043l.096.004-.118.002-.648-.001L156 29.14c.207-.137 1.249-.05 2.174.002zm-2.109-1.205c1.272.225 2.621.17 3.436.525.89.386.866.558.194.633l-.053.004c.055-.03.071-.066.047-.114-.186-.379-2.981-.795-3.624-1.048zm57.902-2.44c-4.224.302-11.558-6.33-15.3-8.06-6.101-2.826-12.944-4.845-19.732-4.462-5.969.334-11.116 3.123-15.31 7.277-.909.901-7.542 6.765-7.547 7.679-.976-.887 7.524-9.08 8.609-10.002 4.286-3.626 9.94-5.735 15.53-6.08 12.47-.774 24.06 6.658 33.75 13.648zm-41.934-.049c-.236 3.186-4.593 3.062-6.166 1.007 2.609 2.959 4.092-.946 6.166-1.007zm-.085-1.67c-.334.643-.788 1.083-1.293 1.35-1.743 3.107-6.407 1.17-5.212-2.25.287-.823.761-1.329 1.312-1.58l.073-.032c1.443-3.034 5.87-.664 5.12 2.512zm-5.074-2.53l-.046.018a3.693 3.693 0 0 0-.151.37c-.95 2.72 1.804 4.502 3.849 3.556l.13-.064.06-.108c.586-2.487-2-4.48-3.842-3.772zm3.219-1.55c-3.434-1.948-3.565 2.235-5.507 2.969-.809-3.089 3.353-4.403 5.507-2.968zm34.613-2.952l.004.005.007.008-.011-.013zM190.612 3.033c4.71 3.832 9.375 8.286 13.4 12.908l.694.805-.054-.047c-1.025-.894-13.993-11.523-15.527-12.403-9.532-5.496-8.098 1.87-15.242 5.955 3.13-8.42 8.38-14.013 16.729-7.218z"/>
        <path fill="#1A1919" d="M171.909 23.566c.767-2.931-3.514-5.203-4.712-2.03-1.161 3.062 3.12 4.903 4.712 2.03"/>
        <path fill="#FFFFFE" d="M171.922 23.507c.708-2.956-3.62-5.126-4.748-1.919-1.09 3.098 3.225 4.833 4.748 1.919l-2.61-1.709"/>
        <path fill="#2A2A2A" d="M169 23.606c4.427 1.995.145-4.458 0 0"/>
    </g>
</svg>
