<?xml version="1.0" encoding="utf-8"?>
<!-- Generator: Adobe Illustrator 22.0.0, SVG Export Plug-In . SVG Version: 6.00 Build 0)  -->
<svg version="1.1" id="Layer_1" xmlns="http://www.w3.org/2000/svg" xmlns:xlink="http://www.w3.org/1999/xlink" x="0px" y="0px"
	 width="16px" height="16px" viewBox="0 0 16 16" style="enable-background:new 0 0 16 16;" xml:space="preserve">
<style type="text/css">
	.st0{fill:#FFFFFF;}
</style>
<g>
	<path class="st0" d="M11.5,11.4c0.3-0.2,0.7-0.2,1,0l0.1,0.1l2.6,3.1c0.3,0.3,0.2,0.8-0.1,1.1c-0.3,0.2-0.7,0.2-1,0L14,15.5
		l-2.6-3.1C11.2,12.2,11.2,11.7,11.5,11.4C11.5,11.4,11.5,11.4,11.5,11.4z"/>
	<path class="st0" d="M8,0.3c-3.7,0-6.8,3-6.8,6.8s3,6.8,6.8,6.8s6.8-3,6.8-6.8S11.7,0.3,8,0.3z M8,1.8c2.9,0,5.3,2.4,5.3,5.3
		s-2.4,5.3-5.3,5.3S2.8,9.9,2.8,7S5.1,1.8,8,1.8z"/>
</g>
</svg>
