<svg xmlns="http://www.w3.org/2000/svg" width="96" height="96" viewBox="0 0 96 96">
    <defs>
        <linearGradient id="a" x1="6.435%" x2="84.503%" y1="50%" y2="50%">
            <stop offset="0%" stop-color="#FA0"/>
            <stop offset="100%" stop-color="#EE7B00"/>
        </linearGradient>
    </defs>
    <g fill="none" fill-rule="evenodd">
        <circle cx="48" cy="48" r="48" fill="#FEFAF2"/>
        <path fill="url(#a)" fill-rule="nonzero" d="M63.04 53.755c.674-.837.998-1.733.956-2.657-.04-1.017-.509-1.813-.894-2.302.447-1.084.62-2.79-.875-4.115-1.094-.97-2.953-1.405-5.527-1.285-1.81.08-3.325.408-3.387.422h-.007c-.344.06-.71.133-1.081.214-.028-.428.048-1.492.86-3.888.964-2.85.91-5.032-.179-6.491C51.764 32.12 49.94 32 49.403 32a1.75 1.75 0 0 0-1.329.589c-.764.863-.675 2.456-.578 3.192-.909 2.369-3.456 8.177-5.61 9.79a.731.731 0 0 0-.11.094 7.176 7.176 0 0 0-1.35 1.967 2.905 2.905 0 0 0-1.363-.335h-4.2C33.28 47.297 32 48.55 32 50.081v10.874c0 1.54 1.287 2.784 2.864 2.784h4.199c.613 0 1.184-.187 1.652-.509l1.618.188c.248.033 4.653.575 9.176.488.82.06 1.59.094 2.306.094 1.232 0 2.306-.094 3.201-.281 2.107-.435 3.545-1.305 4.275-2.583a3.996 3.996 0 0 0 .468-2.563c1.37-1.205 1.611-2.536 1.563-3.473a4.412 4.412 0 0 0-.282-1.345zm-28.176 8.177c-.558 0-1.005-.441-1.005-.977v-10.88c0-.543.454-.978 1.005-.978h4.199c.558 0 1.005.442 1.005.977V60.95c0 .542-.454.977-1.005.977h-4.2v.006zm26.413-8.96a.88.88 0 0 0-.124 1.09c0 .007.283.476.317 1.118.048.877-.385 1.653-1.294 2.316a.897.897 0 0 0-.317 1.03c0 .007.296.89-.186 1.727-.46.803-1.487 1.378-3.042 1.7-1.246.26-2.94.307-5.019.147h-.096c-4.426.093-8.901-.469-8.95-.476h-.006l-.695-.08c.041-.187.062-.388.062-.589v-10.88c0-.288-.049-.57-.131-.83.124-.449.468-1.446 1.28-2.296 3.091-2.382 6.113-10.419 6.244-10.767a.825.825 0 0 0 .041-.448c-.117-.75-.075-1.666.09-1.94.365.006 1.349.106 1.941.903.702.943.675 2.63-.083 4.865-1.156 3.406-1.252 5.2-.337 5.989.454.395 1.06.415 1.5.26.42-.093.82-.173 1.199-.233l.09-.02c2.112-.449 5.899-.723 7.213.441 1.116.99.324 2.302.235 2.443a.877.877 0 0 0 .165 1.164c.007.007.73.67.764 1.56.027.595-.262 1.204-.86 1.806z"/>
    </g>
</svg>
