<svg xmlns="http://www.w3.org/2000/svg" width="108" height="108" viewBox="0 0 108 108">
    <g fill="none" fill-rule="evenodd">
        <circle cx="54" cy="54" r="53.5" fill="#FFF" stroke="#EEE"/>
        <g transform="translate(32 38)">
            <path stroke="#33988D" stroke-width="2.435" d="M43.83 0a4.87 4.87 0 0 1 4.87 4.87v20.211a10.206 10.206 0 0 0-5.126-1.371c-5.662 0-10.252 4.59-10.252 10.252 0 .352.017.7.052 1.042H4.87A4.87 4.87 0 0 1 0 30.134V4.87A4.87 4.87 0 0 1 4.87 0h38.96z"/>
            <circle cx="44.055" cy="35.244" r="9.612" fill="#FAF8F8"/>
            <path stroke="#33988D" stroke-linecap="round" stroke-linejoin="round" stroke-width="2.435" d="M9.74 9.474l15.22 10.463L40.177 8.523"/>
        </g>
        <path fill="#333C5A" fill-rule="nonzero" d="M77.485 72.236L81.2 68.52a.59.59 0 1 0-.836-.836L76.65 71.4l-3.716-3.716a.59.59 0 1 0-.836.836l3.716 3.716-3.716 3.716a.59.59 0 1 0 .836.836l3.716-3.716 3.716 3.716a.59.59 0 0 0 .836 0 .59.59 0 0 0 0-.836l-3.716-3.716z"/>
    </g>
</svg>
