<svg xmlns="http://www.w3.org/2000/svg" width="32" height="32" viewBox="0 0 32 32">
    <g fill="none" fill-rule="evenodd">
        <g fill="#FCE3BD" fill-rule="nonzero">
            <g>
                <g>
                    <g>
                        <g>
                            <g>
                                <g>
                                    <g>
                                        <g>
                                            <path d="M18.71 0c.411 0 .773.263.904.646l.03.107.534 2.46c.524.17 1.038.374 1.537.609l.372.182 2.118-1.362c.344-.22.786-.197 1.102.048l.09.08 3.832 3.832c.29.289.36.726.188 1.087l-.06.106-1.36 2.118c.25.492.469 1 .656 1.518l.135.39 2.46.535c.402.088.699.422.746.824l.006.11v5.42c0 .411-.263.773-.646.904l-.107.03-2.46.534c-.17.524-.374 1.038-.609 1.537l-.182.372 1.362 2.118c.22.344.197.786-.048 1.102l-.08.09-3.832 3.832c-.289.29-.726.36-1.087.188l-.106-.06-2.118-1.36c-.492.25-1 .469-1.518.656l-.39.135-.535 2.46c-.088.402-.422.699-.824.746l-.11.006h-5.42c-.411 0-.773-.263-.904-.646l-.03-.107-.534-2.46c-.524-.17-1.038-.374-1.537-.609l-.372-.182-2.118 1.362c-.344.22-.786.197-1.102-.048l-.09-.08-3.832-3.832c-.29-.289-.36-.726-.188-1.087l.06-.106 1.36-2.118c-.25-.492-.469-1-.656-1.518l-.135-.39-2.46-.535c-.402-.088-.699-.422-.746-.824L0 18.71v-5.42c0-.411.263-.773.646-.904l.107-.03 2.46-.534c.17-.524.374-1.038.609-1.537l.182-.372-1.362-2.118c-.22-.344-.197-.786.048-1.102l.08-.09L6.603 2.77c.289-.29.726-.36 1.087-.188l.106.06 2.118 1.36c.492-.25 1-.469 1.518-.656l.39-.135.535-2.46c.088-.402.422-.699.824-.746L13.29 0h5.42zm-.772 1.912h-3.876l-.49 2.255c-.076.347-.337.623-.678.718-.89.248-1.749.605-2.555 1.06-.27.152-.595.163-.872.035l-.115-.063-1.943-1.25L4.668 7.41l1.249 1.943c.191.298.202.678.028.987-.455.806-.812 1.666-1.06 2.555-.084.303-.312.543-.605.645l-.113.032-2.255.49v3.877l2.256.49c.346.076.622.337.717.678.249.89.605 1.749 1.06 2.555.153.27.163.595.035.872l-.063.115-1.249 1.943 2.741 2.741 1.943-1.249c.298-.191.678-.202.987-.028.806.455 1.666.812 2.555 1.06.303.084.543.312.645.605l.032.113.49 2.255h3.877l.49-2.255c.076-.347.337-.623.678-.718.89-.248 1.749-.605 2.555-1.06.27-.152.595-.163.872-.035l.115.063 1.943 1.25 2.741-2.742-1.249-1.943c-.191-.298-.202-.678-.028-.987.455-.806.812-1.666 1.06-2.555.084-.303.312-.543.605-.645l.113-.032 2.255-.49v-3.877l-2.256-.49c-.346-.076-.622-.337-.717-.678-.249-.89-.605-1.749-1.06-2.555-.153-.27-.163-.595-.035-.872l.063-.115 1.249-1.943-2.741-2.741-1.943 1.249c-.298.191-.678.202-.987.028-.806-.455-1.666-.812-2.555-1.06-.303-.084-.543-.312-.645-.605l-.032-.113-.49-2.255zM16.5 9c4.142 0 7.5 3.358 7.5 7.5 0 4.142-3.358 7.5-7.5 7.5-4.142 0-7.5-3.358-7.5-7.5C9 12.358 12.358 9 16.5 9zm.236 4.067c-.239-.124-.542-.076-.73.14l-3.36 2.845-.064.087c-.145.245-.1.566.123.759l.088.063c.245.145.566.1.759-.123L15.9 15v6.267l.008.097c.046.285.294.503.592.503.331 0 .6-.269.6-.6L17.099 15l2.401 1.838.08.073c.228.17.552.16.768-.041.243-.226.257-.605.032-.848l-3.48-2.83-.078-.07z" transform="translate(-947 -760) translate(0 600) translate(150 120) translate(488) translate(217) translate(33 40) translate(59)"/>
                                        </g>
                                    </g>
                                </g>
                            </g>
                        </g>
                    </g>
                </g>
            </g>
        </g>
    </g>
</svg>
