<svg xmlns="http://www.w3.org/2000/svg" width="32" height="32" viewBox="0 0 32 32">
    <g fill="none" fill-rule="evenodd">
        <g fill="#FCE3BD" fill-rule="nonzero">
            <g>
                <g>
                    <g>
                        <g>
                            <g>
                                <g>
                                    <g>
                                        <path d="M28.738 0c1.527 0 2.77 1.242 2.77 2.77v17.968c0 1.527-1.243 2.77-2.77 2.77h-8.94l.676 4.061h1.188c.51 0 .923.414.923.923 0 .51-.414.923-.923.923H9.846c-.51 0-.923-.413-.923-.923s.413-.923.923-.923h1.187l.677-4.061H2.77c-1.528 0-2.77-1.243-2.77-2.77V2.77C0 1.242 1.242 0 2.77 0zM17.926 23.508h-4.344l-.677 4.061h5.698l-.677-4.061zM14.83 1.846H2.769c-.509 0-.923.414-.923.923v17.97c0 .508.414.923.923.923h25.97c.508 0 .923-.415.923-.924V2.77c0-.509-.415-.923-.924-.923H16.677v1.046c0 .51-.413.923-.923.923s-.923-.413-.923-.923V1.846zM4.923 5.908c.51 0 .923.413.923.923v8.923h2.092v-5.97c0-.51.414-.922.924-.922s.923.413.923.923v5.969h2.092v-3.016c0-.51.413-.923.923-.923s.923.414.923.923v3.939c0 .51-.413.923-.923.923H4.923c-.51 0-.923-.413-.923-.923V6.83c0-.51.413-.923.923-.923zm17.23.492c2.953 0 5.355 2.402 5.355 5.354s-2.402 5.354-5.354 5.354c-1.454 0-2.774-.583-3.74-1.527-.047-.041-.045-.039-.087-.087-.944-.966-1.527-2.286-1.527-3.74 0-2.952 2.402-5.354 5.354-5.354zm3.384 6.277h-3l-2.122 2.121c1.987 1.14 4.52.084 5.122-2.121zM21.231 8.37c-2.203.602-3.263 3.133-2.122 5.123l2.122-2.121zm1.846 0v2.46h2.46c-.325-1.193-1.267-2.134-2.46-2.46z" transform="translate(-1164 -760) translate(0 600) translate(150 120) translate(488) translate(434) translate(27 40) translate(65) translate(0 2)"/>
                                    </g>
                                </g>
                            </g>
                        </g>
                    </g>
                </g>
            </g>
        </g>
    </g>
</svg>
