<svg xmlns="http://www.w3.org/2000/svg" width="34" height="34" viewBox="0 0 34 34">
    <g fill="none" fill-rule="evenodd">
        <g fill="#FCE3BD" fill-rule="nonzero">
            <g>
                <g>
                    <g>
                        <g>
                            <g>
                                <g>
                                    <g>
                                        <path d="M29.577 21.519c.275.988.147 2.024-.362 2.917-1.049 1.84-3.41 2.492-5.264 1.451-.619-.347-.838-1.129-.489-1.746.349-.616 1.133-.835 1.752-.487.988.559 2.191-.357 1.884-1.45-.092-.33-.308-.603-.608-.772l-.083-.047c-1.316-.744-2.034-2.185-1.83-3.67.125-.909.122-1.85-.01-2.759-.318-1.873 1.081-3.3 1.92-3.74.303-.172.52-.446.61-.775.092-.327.05-.67-.12-.966-.35-.615-1.141-.833-1.763-.484 0 0-1.028.54-1.864.54-.842 0-1.683-.264-2.378-.819-.76-.606-1.6-1.094-2.5-1.452-1.413-.562-2.326-1.9-2.326-3.409v-.025c-.071-1.7-2.502-1.7-2.573 0 0 1.517-.92 2.858-2.344 3.415-.91.357-1.76.846-2.528 1.456-1.37 1.131-3.25.92-4.2.292-.618-.347-1.41-.13-1.76.486-.362.612-.108 1.417.512 1.752 1.316.744 2.054 2.237 1.837 3.714-.069.47-.104.951-.104 1.43 0 .458.032.92.096 1.37.208 1.487-.51 2.93-1.83 3.678l-.02.011c-.304.17-.52.445-.611.774-.091.327-.049.67.12.966.35.616 1.142.833 1.763.484.62-.348 1.404-.13 1.753.487.348.617.13 1.399-.49 1.746-.598.336-1.25.496-1.893.496-1.349 0-2.66-.701-3.37-1.947-.509-.893-.638-1.929-.362-2.917.276-.99.923-1.815 1.824-2.32.39-.221.628-.67.568-1.102-.164-1.163-.16-2.365.01-3.527.065-.44-.181-.899-.582-1.126C.136 12.468-.558 9.984.504 8.21c1.049-1.84 3.41-2.492 5.263-1.451.288.184.879.32 1.331-.066.969-.77 2.042-1.387 3.19-1.836.432-.17.712-.574.712-1.03.212-5.102 7.508-5.1 7.719 0 0 .453.277.882.707 1.053 1.135.452 2.196 1.068 3.154 1.832.464.386 1.073.266 1.368.049 1.857-1.043 4.218-.392 5.267 1.45 1.063 1.777.368 4.258-1.462 5.236l-.088.05c-.393.222-.615.662-.552 1.093.085.586.128 1.186.128 1.782 0 .565-.039 1.135-.115 1.692-.06.433.162.872.552 1.093l.08.045c.895.503 1.543 1.327 1.82 2.318zm-8.864-5.196c0 3.18-2.597 5.768-5.79 5.768-7.68-.317-7.677-11.22 0-11.536 3.193 0 5.79 2.587 5.79 5.768zm-2.573 0c0-1.767-1.443-3.205-3.216-3.205-4.267.176-4.266 6.234 0 6.409 1.773 0 3.216-1.437 3.216-3.204zm5.274 15.188c0-4.31-3.508-7.818-7.821-7.818h-1.21c-4.313 0-7.821 3.507-7.821 7.818 0 .708.576 1.282 1.286 1.282.71 0 1.287-.574 1.287-1.282 0-2.897 2.354-5.255 5.248-5.255h1.21c2.894 0 5.248 2.358 5.248 5.255 0 .708.576 1.282 1.287 1.282.71 0 1.286-.574 1.286-1.282z" transform="translate(-728 -751) translate(0 600) translate(150 120) translate(488) translate(27 31) translate(63) translate(2)"/>
                                    </g>
                                </g>
                            </g>
                        </g>
                    </g>
                </g>
            </g>
        </g>
    </g>
</svg>
