<svg xmlns="http://www.w3.org/2000/svg" width="32" height="32" viewBox="0 0 32 32">
    <defs>
        <linearGradient id="prefix__a" x1="6.435%" x2="84.503%" y1="50%" y2="50%">
            <stop offset="0%" stop-color="#FA0"/>
            <stop offset="100%" stop-color="#EE7B00"/>
        </linearGradient>
    </defs>
    <g fill="none" fill-rule="evenodd">
        <path fill="url(#prefix__a)" d="M11.335 9.453c2.094-3.674 6.473 1.731 8.606 3.438.97.776 2.281 3.017 3.756 2.506 1.121-.389 2.048-2.044 2.812-2.899.49-.547 2.347-2.074 2.061-.305-.276 1.713-1.4 2.076-2.421 3.409-.21.274.527 1.127 1.021 2.078.833 1.605 1.76 3.227-.431 1.714-.925-.638-2.491-2.757-3.72-2.63-.403.042-3.019 1.636-2.475 1.852.632.25 2.507 1.362 2.074 2.146-.433.783-3.143-.22-3.56-.546-1.066-.829-1.699-.849-3.004-.399-.49.169-4.471 1.242-4.643.945.547.957 1.662 1.228 1.8 2.464.2 1.813-2.145-1.22-2.363-1.514-1.237-1.673-6.612-3.522-6.228-5.803.946-1.744 5.154-3.716 6.715-6.456z"/>
        <path fill="#2A2A2A" d="M9.74 21.483c.335.523 2.438 3.12 3.066 2.778.992-.545-.663-2.469-1.158-2.725 1.983.207 2.442 1.649 1.555 3.304-.518.964-3.26-2.714-3.463-3.357zm13.72.298c.3 1.462-4.126-.513-4.7-1.02 1.073.547 2.62 1.034 3.839 1.008.824-.019-1.273-1.899-2.182-1.871 1.828-.777 2.69.15 3.043 1.883zM4 16.724c.532.782 2.346 1.868 3.132 2.591 1.472 1.357 3.453 1.896 5.417 1.917 3.956.043 7.106-2.465 10.516-4.114-2.8 2.281-6.597 4.306-10.184 4.363-2.153.033-4.42-.298-6.079-1.798-.26-.233-2.844-2.806-2.801-2.959zM28.333 13.5c-.514 1.05-1.485 1.947-2.281 2.797.881 1.303 2.503 3.06 2.307 4.773-.508-1.237-1.383-4.25-2.758-4.82.2-.191 3.164-3.966 1.902-3.96-1.32.005-3.133 1.976-4.11 2.936l-.113.109.608-.62a47.1 47.1 0 013.27-2.951c1.54-1.275 1.693.675 1.175 1.736zm-4.857 3.846c.927.934 2.953 2.537 4.305 3.517-.975-.228-3.21-2.274-4.305-3.517zM9.941 13c1.629 2.236 1.856 4.554-.611 6.414.84-1.055 1.584-2.354 1.49-3.693-.072-.988-.885-1.737-.879-2.721zm-5.92 3.312c.424.075.872.057 1.143.175.283.123.288.181.092.208l-.05.005.02-.012c.005-.007.006-.016 0-.026-.061-.127-.99-.265-1.204-.35zM23.27 15.5c-1.404.1-3.842-2.11-5.086-2.687-2.028-.942-4.303-1.615-6.56-1.487-1.984.111-3.695 1.041-5.09 2.426-.301.3-2.506 2.255-2.508 2.56-.325-.296 2.501-3.027 2.862-3.335 1.425-1.208 3.304-1.911 5.162-2.026 4.146-.258 7.999 2.22 11.22 4.549zm-13.94-.016c-.078 1.062-1.527 1.02-2.05.335.867.987 1.36-.315 2.05-.335zm-.028-.557a1.031 1.031 0 01-.431.45c-.58 1.035-2.129.39-1.732-.75.097-.279.258-.449.445-.53l.016-.007c.48-1.012 1.951-.222 1.702.837zm-1.636-.86l-.066.023c-.019.038-.035.08-.05.123-.31.887.56 1.475 1.234 1.205l.087-.04a.355.355 0 00.02-.037c.19-.806-.617-1.456-1.225-1.275zm1.019-.5c-1.142-.65-1.185.745-1.83.99-.27-1.03 1.114-1.468 1.83-.99zm6.821-5.555a37.119 37.119 0 014.217 4.031l.462.534-.03-.026c-.456-.392-4.641-3.83-5.143-4.118-3.169-1.832-2.692.623-5.067 1.985 1.04-2.807 2.785-4.671 5.561-2.406z"/>
        <path fill="#1A1919" d="M9.367 14.884c.276-1.055-1.265-1.873-1.696-.73-.418 1.101 1.123 1.764 1.696.73"/>
        <path fill="#FFFFFE" d="M9.372 14.862c.255-1.064-1.303-1.845-1.71-.69-.392 1.115 1.162 1.74 1.71.69l-.94-.615"/>
        <path fill="#2A2A2A" d="M8.2 14.682c1.328.598.043-1.338 0 0"/>
    </g>
</svg>
