<svg xmlns="http://www.w3.org/2000/svg" width="32" height="32" viewBox="0 0 32 32">
    <path fill="#FFF" fill-rule="nonzero" d="M19.585 0c.52 0 .941.421.941.941v7.592h9.098c.52 0 .94.422.94.942V29.05c0 .603.225.917.805 1.12 1 .35.748 1.829-.311 1.829H.94c-1.255 0-1.255-1.882 0-1.882l.162-.006c.282-.023.331-.136.331-.56L.956.959A.941.941 0 0 1 1.897 0zm-.941 1.882H2.855l.14 7.967.32 19.579-.004.32c-.006.128-.02.251-.04.37h25.574a3.382 3.382 0 0 1-.162-1.067V10.416h-8.157v12.611a.941.941 0 1 1-1.882 0V1.882zM8 24.471v2.823H5.176v-2.823H8zm7.529 0v2.823h-2.823v-2.823h2.823zm-7.53-6.589v2.824H5.177v-2.824H8zm7.53 0v2.824h-2.823v-2.824h2.823zm10.353 0v2.824h-2.824v-2.824h2.824zM8 11.294v2.824H5.176v-2.824H8zm7.529 0v2.824h-2.823v-2.824h2.823zm-7.53-6.588v2.823H5.177V4.706H8zm7.53 0v2.823h-2.823V4.706h2.823z" opacity=".5"/>
</svg>
