<?xml version="1.0" encoding="UTF-8"?>
<svg width="32px" height="32px" viewBox="0 0 32 32" version="1.1" xmlns="http://www.w3.org/2000/svg" xmlns:xlink="http://www.w3.org/1999/xlink">
    <!-- Generator: Sketch 61.2 (89653) - https://sketch.com -->
    <title>Drink&amp;Dine</title>
    <desc>Created with Sketch.</desc>
    <g id="Drink&amp;Dine" stroke="none" stroke-width="1" fill="none" fill-rule="evenodd">
        <g id="Drink&amp;Dine-Stroke-icon" fill="#383838" fill-rule="nonzero">
            <path d="M16.9693014,17 L16.969,28 L21.0462244,28 C21.5196114,28 21.9097695,28.3860402 21.9630911,28.8833789 L21.9693014,29 C21.9693014,29.5128358 21.6129566,29.9355072 21.1538747,29.9932723 L21.0462244,30 L10.8923783,30 C10.382577,30 9.96930136,29.5522847 9.96930136,29 C9.96930136,28.4871642 10.3256461,28.0644928 10.784728,28.0067277 L10.8923783,28 L14.969,28 L14.9693014,17 L16.9693014,17 Z M32,2 C31.4898701,10.2623465 24.6971292,16.8282109 16.3310466,16.9973593 L16,17.0007031 C7.59332895,17.0007031 0.698035512,10.5421419 0.0233891059,2.32525341 L-1.0249579e-12,2 L32,2 Z M29.708,4 L2.291,4 L2.29883597,4.03432101 C3.66901157,10.2342443 9.14781245,14.8497992 15.6780086,14.9970752 L16,15.0007031 C22.5589885,15.0007031 28.1056317,10.4958361 29.6214567,4.37421872 L29.708,4 Z" id="Combined-Shape"></path>
        </g>
    </g>
</svg>