<?xml version="1.0" encoding="UTF-8"?>
<svg width="32px" height="32px" viewBox="0 0 32 32" version="1.1" xmlns="http://www.w3.org/2000/svg" xmlns:xlink="http://www.w3.org/1999/xlink">
    <!-- Generator: Sketch 61.2 (89653) - https://sketch.com -->
    <title>Drink&amp;Dine Copy 3</title>
    <desc>Created with Sketch.</desc>
    <g id="Drink&amp;Dine-Copy-3" stroke="none" stroke-width="1" fill="none" fill-rule="evenodd">
        <g id="Function-Stroke-icon" stroke="#383838" stroke-width="2">
            <g id="Function-Venue">
                <path d="M15,30.5547091 C15.3487757,30.1840758 15.7284625,29.7723764 16.1323148,29.3244719 C17.5218175,27.7834018 18.9112855,26.1332316 20.206146,24.4428584 C21.5426412,22.6981332 22.7009233,21.009463 23.6280178,19.4177911 C25.1677692,16.7742858 26,14.512837 26,12.8 C26,6.26912962 21.060191,1 15,1 C8.93980902,1 4,6.26912962 4,12.8 C4,14.512837 4.83223082,16.7742858 6.37198223,19.4177911 C7.29907665,21.009463 8.45735881,22.6981332 9.79385399,24.4428584 C11.0887145,26.1332316 12.4781825,27.7834018 13.8676852,29.3244719 C14.2715375,29.7723764 14.6512243,30.1840758 15,30.5547091 Z M14.9365007,6.93650071 C17.6979245,6.93650071 19.9365007,9.17507696 19.9365007,11.9365007 C19.9365007,14.6979245 17.6979245,16.9365007 14.9365007,16.9365007 C12.175077,16.9365007 9.93650071,14.6979245 9.93650071,11.9365007 C9.93650071,9.17507696 12.175077,6.93650071 14.9365007,6.93650071 Z" id="Combined-Shape"></path>
            </g>
        </g>
    </g>
</svg>