<svg xmlns="http://www.w3.org/2000/svg" width="32" height="32" viewBox="0 0 32 32">
    <g fill="none" fill-rule="evenodd" stroke="#FFF" stroke-width="2">
        <path d="M15 30.555a78.8 78.8 0 0 0 1.132-1.23 80.084 80.084 0 0 0 4.074-4.882c1.337-1.745 2.495-3.434 3.422-5.025C25.168 16.774 26 14.513 26 12.8 26 6.27 21.06 1 15 1S4 6.27 4 12.8c0 1.713.832 3.974 2.372 6.618.927 1.591 2.085 3.28 3.422 5.025a80.084 80.084 0 0 0 4.074 4.881c.404.448.783.86 1.132 1.23z"/>
        <circle cx="14.937" cy="11.937" r="4" stroke-linejoin="round"/>
    </g>
</svg>
