<?xml version="1.0" encoding="UTF-8"?>
<svg width="245px" height="108px" viewBox="0 0 245 108" version="1.1" xmlns="http://www.w3.org/2000/svg" xmlns:xlink="http://www.w3.org/1999/xlink">
    <!-- Generator: Sketch 58 (84663) - https://sketch.com -->
    <title>Group 12</title>
    <desc>Created with Sketch.</desc>
    <g id="Desktop-View" stroke="none" stroke-width="1" fill="none" fill-rule="evenodd">
        <g id="No-Results-found" transform="translate(-287.000000, -224.000000)">
            <g id="Group-12" transform="translate(286.000000, 222.000000)">
                <circle id="Oval" stroke="#BBBFC9" cx="119" cy="49" r="22.5"></circle>
                <circle id="Oval-Copy-4" stroke="#B3B4B9" cx="119" cy="49" r="26.5"></circle>
                <circle id="Oval-Copy-3" stroke="#BBBFC9" fill="#EBF5F4" cx="119" cy="49" r="22.5"></circle>
                <path d="M109.162071,46.1166161 C109.438213,46.1166161 109.662071,46.3404738 109.662071,46.6166161 L109.661616,48.5706161 L111.616616,48.5711616 C111.892759,48.5711616 112.116616,48.7950192 112.116616,49.0711616 L112.116616,49.1620707 C112.116616,49.438213 111.892759,49.6620707 111.616616,49.6620707 L109.661616,49.6616161 L109.662071,51.6166161 C109.662071,51.8927585 109.438213,52.1166161 109.162071,52.1166161 L109.071162,52.1166161 C108.795019,52.1166161 108.571162,51.8927585 108.571162,51.6166161 L108.570616,49.6616161 L106.616616,49.6620707 C106.340474,49.6620707 106.116616,49.438213 106.116616,49.1620707 L106.116616,49.0711616 C106.116616,48.7950192 106.340474,48.5711616 106.616616,48.5711616 L108.570616,48.5706161 L108.571162,46.6166161 C108.571162,46.3404738 108.795019,46.1166161 109.071162,46.1166161 L109.162071,46.1166161 Z" id="Combined-Shape-Copy" fill="#A1A5AE" transform="translate(109.116616, 49.116616) rotate(-47.000000) translate(-109.116616, -49.116616) "></path>
                <path d="M130.162071,46.1166161 C130.438213,46.1166161 130.662071,46.3404738 130.662071,46.6166161 L130.661616,48.5706161 L132.616616,48.5711616 C132.892759,48.5711616 133.116616,48.7950192 133.116616,49.0711616 L133.116616,49.1620707 C133.116616,49.438213 132.892759,49.6620707 132.616616,49.6620707 L130.661616,49.6616161 L130.662071,51.6166161 C130.662071,51.8927585 130.438213,52.1166161 130.162071,52.1166161 L130.071162,52.1166161 C129.795019,52.1166161 129.571162,51.8927585 129.571162,51.6166161 L129.570616,49.6616161 L127.616616,49.6620707 C127.340474,49.6620707 127.116616,49.438213 127.116616,49.1620707 L127.116616,49.0711616 C127.116616,48.7950192 127.340474,48.5711616 127.616616,48.5711616 L129.570616,48.5706161 L129.571162,46.6166161 C129.571162,46.3404738 129.795019,46.1166161 130.071162,46.1166161 L130.162071,46.1166161 Z" id="Combined-Shape-Copy-3" fill="#A1A5AE" transform="translate(130.116616, 49.116616) rotate(-47.000000) translate(-130.116616, -49.116616) "></path>
                <circle id="Oval" fill="#E6E6E6" cx="99.5" cy="94.5" r="2.5"></circle>
                <circle id="Oval-Copy" fill="#E6E6E6" cx="78.5" cy="20.5" r="2.5"></circle>
                <circle id="Oval-Copy-2" stroke="#EAEAEA" cx="200.5" cy="18.5" r="2"></circle>
                <path d="M53.7309293,69.3907619 L69.7309293,69.3907619 C70.0070716,69.3907619 70.2309293,69.6146195 70.2309293,69.8907619 C70.2309293,70.1669043 70.0070716,70.3907619 69.7309293,70.3907619 L53.7309293,70.3907619 C53.4547869,70.3907619 53.2309293,70.1669043 53.2309293,69.8907619 C53.2309293,69.6146195 53.4547869,69.3907619 53.7309293,69.3907619 Z" id="Rectangle" fill="#D8D8D8" transform="translate(61.730929, 69.890762) rotate(-17.000000) translate(-61.730929, -69.890762) "></path>
                <path d="M55.3020259,74.9032149 L66.3020259,74.9032149 C66.5781683,74.9032149 66.8020259,75.1270726 66.8020259,75.4032149 C66.8020259,75.6793573 66.5781683,75.9032149 66.3020259,75.9032149 L55.3020259,75.9032149 C55.0258835,75.9032149 54.8020259,75.6793573 54.8020259,75.4032149 C54.8020259,75.1270726 55.0258835,74.9032149 55.3020259,74.9032149 Z" id="Rectangle-Copy-4" fill="#D8D8D8" transform="translate(60.802026, 75.403215) rotate(-17.000000) translate(-60.802026, -75.403215) "></path>
                <path d="M67,53 C67.0330687,53 67.0658157,53.0032766 67.0978027,53.0096571 L67,53.0045383 C67.3597709,53.0045383 67.7057412,53.1337606 67.9763282,53.365767 L68.0874992,53.4714141 L71.097,56.639 L74.8411591,60.1344724 C74.9424767,60.2290354 75,60.3614092 75,60.5 L75,79.5 C75,80.8807119 73.8807119,82 72.5,82 L49.5,82 C48.1192881,82 47,80.8807119 47,79.5 L47,55.5 C47,54.1192881 48.1192881,53 49.5,53 L67,53 Z M65.5870163,53.9998569 L49.5,54 C48.6715729,54 48,54.6715729 48,55.5 L48,79.5 C48,80.3284271 48.6715729,81 49.5,81 L72.5,81 C73.3284271,81 74,80.3284271 74,79.5 L74.0013234,62.4308138 C73.805129,62.5383453 73.5858795,62.6014352 73.3591942,62.613366 L65.5,63.0270078 L65.5,54.5045383 C65.5,54.3274699 65.5306808,54.1575674 65.5870163,53.9998569 Z M66.5,54.5045383 L66.5,61.9729922 L73.3066353,61.6147482 C73.4255775,61.6084881 73.5383783,61.5599738 73.6247306,61.477939 C73.8249337,61.2877461 73.8330485,60.9712676 73.6428556,60.7710646 L70.395,57.353 L66.8361335,54.032009 C66.6404735,54.0998515 66.5,54.2857903 66.5,54.5045383 Z" id="Combined-Shape" fill="#E6E6E6" fill-rule="nonzero" transform="translate(61.000000, 67.500000) rotate(-17.000000) translate(-61.000000, -67.500000) "></path>
                <path d="M180.310907,68.4031542 L196.310907,68.4031542 C196.587049,68.4031542 196.810907,68.6270119 196.810907,68.9031542 C196.810907,69.1792966 196.587049,69.4031542 196.310907,69.4031542 L180.310907,69.4031542 C180.034764,69.4031542 179.810907,69.1792966 179.810907,68.9031542 C179.810907,68.6270119 180.034764,68.4031542 180.310907,68.4031542 Z" id="Rectangle" fill="#D8D8D8" transform="translate(188.310907, 68.903154) rotate(16.000000) translate(-188.310907, -68.903154) "></path>
                <path d="M179.029566,72.5203693 L190.029566,72.5203693 C190.305708,72.5203693 190.529566,72.744227 190.529566,73.0203693 C190.529566,73.2965117 190.305708,73.5203693 190.029566,73.5203693 L179.029566,73.5203693 C178.753423,73.5203693 178.529566,73.2965117 178.529566,73.0203693 C178.529566,72.744227 178.753423,72.5203693 179.029566,72.5203693 Z" id="Rectangle-Copy-4" fill="#D8D8D8" transform="translate(184.529566, 73.020369) rotate(16.000000) translate(-184.529566, -73.020369) "></path>
                <path d="M195,52 C195.033069,52 195.065816,52.0032766 195.097803,52.0096571 L195,52.0045383 C195.359771,52.0045383 195.705741,52.1337606 195.976328,52.365767 L196.087499,52.4714141 L199.097,55.639 L202.841159,59.1344724 C202.942477,59.2290354 203,59.3614092 203,59.5 L203,78.5 C203,79.8807119 201.880712,81 200.5,81 L177.5,81 C176.119288,81 175,79.8807119 175,78.5 L175,54.5 C175,53.1192881 176.119288,52 177.5,52 L195,52 Z M193.587016,52.9998569 L177.5,53 C176.671573,53 176,53.6715729 176,54.5 L176,78.5 C176,79.3284271 176.671573,80 177.5,80 L200.5,80 C201.328427,80 202,79.3284271 202,78.5 L202.001323,61.4308138 C201.805129,61.5383453 201.585879,61.6014352 201.359194,61.613366 L193.5,62.0270078 L193.5,53.5045383 C193.5,53.3274699 193.530681,53.1575674 193.587016,52.9998569 Z M194.5,53.5045383 L194.5,60.9729922 L201.306635,60.6147482 C201.425578,60.6084881 201.538378,60.5599738 201.624731,60.477939 C201.824934,60.2877461 201.833049,59.9712676 201.642856,59.7710646 L198.395,56.353 L194.836133,53.032009 C194.640473,53.0998515 194.5,53.2857903 194.5,53.5045383 Z" id="Combined-Shape" fill="#E6E6E6" fill-rule="nonzero" transform="translate(189.000000, 66.500000) rotate(16.000000) translate(-189.000000, -66.500000) "></path>
                <path d="M220.75,92.1650635 L236.75,92.1650635 C237.026142,92.1650635 237.25,92.3889211 237.25,92.6650635 C237.25,92.9412059 237.026142,93.1650635 236.75,93.1650635 L220.75,93.1650635 C220.473858,93.1650635 220.25,92.9412059 220.25,92.6650635 C220.25,92.3889211 220.473858,92.1650635 220.75,92.1650635 Z" id="Rectangle" fill="#D8D8D8" transform="translate(228.750000, 92.665064) rotate(30.000000) translate(-228.750000, -92.665064) "></path>
                <path d="M218.584936,95.2451905 L229.584936,95.2451905 C229.861079,95.2451905 230.084936,95.4690482 230.084936,95.7451905 C230.084936,96.0213329 229.861079,96.2451905 229.584936,96.2451905 L218.584936,96.2451905 C218.308794,96.2451905 218.084936,96.0213329 218.084936,95.7451905 C218.084936,95.4690482 218.308794,95.2451905 218.584936,95.2451905 Z" id="Rectangle-Copy-4" fill="#D8D8D8" transform="translate(224.084936, 95.745191) rotate(30.000000) translate(-224.084936, -95.745191) "></path>
                <path d="M236,76 C236.033069,76 236.065816,76.0032766 236.097803,76.0096571 L236,76.0045383 C236.359771,76.0045383 236.705741,76.1337606 236.976328,76.365767 L237.087499,76.4714141 L240.097,79.639 L243.841159,83.1344724 C243.942477,83.2290354 244,83.3614092 244,83.5 L244,102.5 C244,103.880712 242.880712,105 241.5,105 L218.5,105 C217.119288,105 216,103.880712 216,102.5 L216,78.5 C216,77.1192881 217.119288,76 218.5,76 L236,76 Z M234.587016,76.9998569 L218.5,77 C217.671573,77 217,77.6715729 217,78.5 L217,102.5 C217,103.328427 217.671573,104 218.5,104 L241.5,104 C242.328427,104 243,103.328427 243,102.5 L243.001323,85.4308138 C242.805129,85.5383453 242.585879,85.6014352 242.359194,85.613366 L234.5,86.0270078 L234.5,77.5045383 C234.5,77.3274699 234.530681,77.1575674 234.587016,76.9998569 Z M235.5,77.5045383 L235.5,84.9729922 L242.306635,84.6147482 C242.425578,84.6084881 242.538378,84.5599738 242.624731,84.477939 C242.824934,84.2877461 242.833049,83.9712676 242.642856,83.7710646 L239.395,80.353 L235.836133,77.032009 C235.640473,77.0998515 235.5,77.2857903 235.5,77.5045383 Z" id="Combined-Shape" fill="#E6E6E6" fill-rule="nonzero" transform="translate(230.000000, 90.500000) rotate(30.000000) translate(-230.000000, -90.500000) "></path>
                <path d="M13.2120241,91.1865493 L29.2120241,91.1865493 C29.4881664,91.1865493 29.7120241,91.4104069 29.7120241,91.6865493 C29.7120241,91.9626916 29.4881664,92.1865493 29.2120241,92.1865493 L13.2120241,92.1865493 C12.9358817,92.1865493 12.7120241,91.9626916 12.7120241,91.6865493 C12.7120241,91.4104069 12.9358817,91.1865493 13.2120241,91.1865493 Z" id="Rectangle" fill="#D8D8D8" transform="translate(21.212024, 91.686549) rotate(-29.000000) translate(-21.212024, -91.686549) "></path>
                <path d="M15.9495229,96.7716719 L26.9495229,96.7716719 C27.2256653,96.7716719 27.4495229,96.9955295 27.4495229,97.2716719 C27.4495229,97.5478142 27.2256653,97.7716719 26.9495229,97.7716719 L15.9495229,97.7716719 C15.6733805,97.7716719 15.4495229,97.5478142 15.4495229,97.2716719 C15.4495229,96.9955295 15.6733805,96.7716719 15.9495229,96.7716719 Z" id="Rectangle-Copy-4" fill="#D8D8D8" transform="translate(21.449523, 97.271672) rotate(-29.000000) translate(-21.449523, -97.271672) "></path>
                <path d="M26,75 C26.0330687,75 26.0658157,75.0032766 26.0978027,75.0096571 L26,75.0045383 C26.3597709,75.0045383 26.7057412,75.1337606 26.9763282,75.365767 L27.0874992,75.4714141 L30.097,78.639 L33.8411591,82.1344724 C33.9424767,82.2290354 34,82.3614092 34,82.5 L34,101.5 C34,102.880712 32.8807119,104 31.5,104 L8.5,104 C7.11928813,104 6,102.880712 6,101.5 L6,77.5 C6,76.1192881 7.11928813,75 8.5,75 L26,75 Z M24.5870163,75.9998569 L8.5,76 C7.67157288,76 7,76.6715729 7,77.5 L7,101.5 C7,102.328427 7.67157288,103 8.5,103 L31.5,103 C32.3284271,103 33,102.328427 33,101.5 L33.0013234,84.4308138 C32.805129,84.5383453 32.5858795,84.6014352 32.3591942,84.613366 L24.5,85.0270078 L24.5,76.5045383 C24.5,76.3274699 24.5306808,76.1575674 24.5870163,75.9998569 Z M25.5,76.5045383 L25.5,83.9729922 L32.3066353,83.6147482 C32.4255775,83.6084881 32.5383783,83.5599738 32.6247306,83.477939 C32.8249337,83.2877461 32.8330485,82.9712676 32.6428556,82.7710646 L29.395,79.353 L25.8361335,76.032009 C25.6404735,76.0998515 25.5,76.2857903 25.5,76.5045383 Z" id="Combined-Shape" fill="#E6E6E6" fill-rule="nonzero" transform="translate(20.000000, 89.500000) rotate(-29.000000) translate(-20.000000, -89.500000) "></path>
                <path d="M19.0454545,55 C19.3215969,55 19.5454545,55.2238576 19.5454545,55.5 L19.545,57.454 L21.5,57.4545455 C21.7761424,57.4545455 22,57.6784031 22,57.9545455 L22,58.0454545 C22,58.3215969 21.7761424,58.5454545 21.5,58.5454545 L19.545,58.545 L19.5454545,60.5 C19.5454545,60.7761424 19.3215969,61 19.0454545,61 L18.9545455,61 C18.6784031,61 18.4545455,60.7761424 18.4545455,60.5 L18.454,58.545 L16.5,58.5454545 C16.2238576,58.5454545 16,58.3215969 16,58.0454545 L16,57.9545455 C16,57.6784031 16.2238576,57.4545455 16.5,57.4545455 L18.454,57.454 L18.4545455,55.5 C18.4545455,55.2238576 18.6784031,55 18.9545455,55 L19.0454545,55 Z" id="Combined-Shape" fill="#E5E6E9" transform="translate(19.000000, 58.000000) rotate(-31.000000) translate(-19.000000, -58.000000) "></path>
                <path d="M134.045455,2 C134.321597,2 134.545455,2.22385763 134.545455,2.5 L134.545,4.454 L136.5,4.45454545 C136.776142,4.45454545 137,4.67840308 137,4.95454545 L137,5.04545455 C137,5.32159692 136.776142,5.54545455 136.5,5.54545455 L134.545,5.545 L134.545455,7.5 C134.545455,7.77614237 134.321597,8 134.045455,8 L133.954545,8 C133.678403,8 133.454545,7.77614237 133.454545,7.5 L133.454,5.545 L131.5,5.54545455 C131.223858,5.54545455 131,5.32159692 131,5.04545455 L131,4.95454545 C131,4.67840308 131.223858,4.45454545 131.5,4.45454545 L133.454,4.454 L133.454545,2.5 C133.454545,2.22385763 133.678403,2 133.954545,2 L134.045455,2 Z" id="Combined-Shape-Copy" fill="#E5E6E9" transform="translate(134.000000, 5.000000) rotate(-31.000000) translate(-134.000000, -5.000000) "></path>
                <path d="M173.045455,21 C173.321597,21 173.545455,21.2238576 173.545455,21.5 L173.545,23.454 L175.5,23.4545455 C175.776142,23.4545455 176,23.6784031 176,23.9545455 L176,24.0454545 C176,24.3215969 175.776142,24.5454545 175.5,24.5454545 L173.545,24.545 L173.545455,26.5 C173.545455,26.7761424 173.321597,27 173.045455,27 L172.954545,27 C172.678403,27 172.454545,26.7761424 172.454545,26.5 L172.454,24.545 L170.5,24.5454545 C170.223858,24.5454545 170,24.3215969 170,24.0454545 L170,23.9545455 C170,23.6784031 170.223858,23.4545455 170.5,23.4545455 L172.454,23.454 L172.454545,21.5 C172.454545,21.2238576 172.678403,21 172.954545,21 L173.045455,21 Z" id="Combined-Shape-Copy-2" fill="#E5E6E9" transform="translate(173.000000, 24.000000) rotate(-5.000000) translate(-173.000000, -24.000000) "></path>
                <path d="M116.5,57 C118.5,55.3333333 120.333333,55.3333333 122,57" id="Path-22" stroke="#A1A5AE" stroke-linecap="round" stroke-linejoin="round"></path>
                <path d="M137.715055,71.205273 C138.793196,70.9194683 139.631055,70.7755622 140.240455,70.7755622 C140.848369,70.7755622 141.669547,70.9186188 142.715054,71.2025755 L142.73977,66.8672929 C142.739776,66.8658677 142.739776,66.8658677 142.739778,66.8644424 C142.739778,66.5883 142.51592,66.3644424 142.239778,66.3644424 L138.23981,66.3644424 C137.96478,66.3644424 137.741386,66.5865666 137.739818,66.8615919 L137.715055,71.205273 Z" id="Rectangle" stroke="#B3B4B9" transform="translate(140.228392, 68.864442) rotate(-47.000000) translate(-140.228392, -68.864442) "></path>
                <rect id="Rectangle" stroke="#B3B4B9" transform="translate(150.500000, 78.500000) rotate(-47.000000) translate(-150.500000, -78.500000) " x="144.5" y="66.5" width="12" height="24" rx="6"></rect>
                <path d="M152,72 L152,80.5" id="Path-23" stroke="#EEEEF2" stroke-linecap="round" stroke-linejoin="round" transform="translate(152.000000, 76.250000) rotate(-47.000000) translate(-152.000000, -76.250000) "></path>
            </g>
        </g>
    </g>
</svg>