<?xml version="1.0" encoding="UTF-8"?>
<svg width="42px" height="42px" viewBox="0 0 42 42" version="1.1" xmlns="http://www.w3.org/2000/svg" xmlns:xlink="http://www.w3.org/1999/xlink">
    <!-- Generator: Sketch 61.2 (89653) - https://sketch.com -->
    <title>Group</title>
    <desc>Created with Sketch.</desc>
    <g id="Page-1" stroke="none" stroke-width="1" fill="none" fill-rule="evenodd">
        <g id="3e-Listing-Detail-Review" transform="translate(-762.000000, -1059.000000)">
            <g id="Group-15" transform="translate(237.000000, 878.000000)">
                <g id="Below-Average" transform="translate(525.000000, 176.000000)">
                    <g id="Group-23" transform="translate(0.000000, 5.000000)">
                        <g id="Below-Average">
                            <path d="M41.9971295,21.3507719 C41.8098345,32.7868809 32.4807483,42 21,42 C9.40210122,42 0,32.5978988 0,21 C0,9.40210122 9.40210122,0 21,0 C32.4807483,0 41.8098345,9.21311908 41.9971295,20.6492281 L42,21 L41.9971295,21.3507719 Z M39.9970575,20.6622027 C39.8168311,10.3247151 31.3804978,2 21,2 C10.5066707,2 2,10.5066707 2,21 C2,31.4933293 10.5066707,40 21,40 C31.3804978,40 39.8168311,31.6752849 39.9970575,21.3377973 L40,21 L39.9970575,20.6622027 Z" id="Fill-107" fill="#F4964E" fill-rule="nonzero"></path>
                            <path d="M29.8073503,30 L29.8034454,30 C29.4660628,30 29.1521096,29.8549418 28.9240639,29.6166855 C26.9216356,27.5264938 24.0765318,26.2547914 20.9971345,26.2547914 C17.923204,26.2547914 15.0757572,27.527997 13.071767,29.6174371 C12.8429404,29.8556933 12.5297681,30 12.1923855,30 C11.1810186,30 10.6163713,28.8365276 11.2997273,28.1187523 C13.7418464,25.5535513 17.2375051,24 20.9971345,24 C24.7653546,24 28.2602324,25.5520481 30.7007895,28.1195039 C31.3833645,28.8372792 30.8187172,30 29.8073503,30" id="Fill-112" fill="#F69D0F"></path>
                            <path d="M14.5,19 C13.1191119,19 12,17.880306 12,16.499625 C12,15.119694 13.1191119,14 14.5,14 C15.8808881,14 17,15.119694 17,16.499625 C17,17.880306 15.8808881,19 14.5,19" id="Fill-113" fill="#F69D0F"></path>
                            <path d="M27.499625,19 C26.1189441,19 25,17.880306 25,16.499625 C25,15.119694 26.1189441,14 27.499625,14 C28.880306,14 30,15.119694 30,16.499625 C30,17.880306 28.880306,19 27.499625,19" id="Fill-114" fill="#F69D0F"></path>
                        </g>
                    </g>
                </g>
            </g>
        </g>
    </g>
</svg>