<?xml version="1.0" encoding="UTF-8"?>
<svg width="40px" height="40px" viewBox="0 0 40 40" version="1.1" xmlns="http://www.w3.org/2000/svg" xmlns:xlink="http://www.w3.org/1999/xlink">
    <!-- Generator: Sketch 61.2 (89653) - https://sketch.com -->
    <title>Excellent</title>
    <desc>Created with Sketch.</desc>
    <g id="Page-1" stroke="none" stroke-width="1" fill="none" fill-rule="evenodd">
        <g id="3e-Listing-Detail-Review" transform="translate(-762.000000, -883.000000)" fill="#48D68B">
            <g id="Group-15" transform="translate(237.000000, 878.000000)">
                <g id="Excellent-" transform="translate(524.000000, 0.000000)">
                    <g id="Excellent" transform="translate(0.000000, 4.000000)">
                        <g id="Group">
                            <path d="M41.044705,21.3453073 C40.8603978,32.257937 31.9565847,41.047619 21,41.047619 C9.92808284,41.047619 0.952380952,32.0719172 0.952380952,21 C0.952380952,9.92808284 9.92808284,0.952380952 21,0.952380952 C31.9565847,0.952380952 40.8603978,9.74206297 41.044705,20.6546927 L41.047619,21 L41.044705,21.3453073 Z M39.0446348,20.6684625 C38.8678245,10.8540883 30.8565994,2.95238095 21,2.95238095 C11.0326523,2.95238095 2.95238095,11.0326523 2.95238095,21 C2.95238095,30.9673477 11.0326523,39.047619 21,39.047619 C30.8565994,39.047619 38.8678245,31.1459117 39.0446348,21.3315375 L39.047619,21 L39.0446348,20.6684625 Z" id="Fill-107" fill-rule="nonzero"></path>
                            <path d="M21.0032756,29.5714286 C17.4137712,29.5714286 14.0853352,28.0932875 11.7610084,25.6480915 C11.1109407,24.964496 11.6494407,23.8571429 12.611898,23.8571429 L12.6156169,23.8571429 C12.9369318,23.8571429 13.2359332,23.9952936 13.4538621,24.2222043 C15.360182,26.212863 18.0697892,27.4240082 21.0032756,27.4240082 C23.9300679,27.4240082 26.6419065,26.2114314 28.5504578,24.2214885 C28.7683866,23.9952936 29.067388,23.8571429 29.3879592,23.8571429 C30.3511602,23.8571429 30.8889165,24.9652118 30.2388488,25.6488073 C27.9122906,28.0918559 24.5838546,29.5714286 21.0032756,29.5714286" id="Fill-116"></path>
                            <path d="M14.8098809,20.047619 C13.4949467,20.047619 12.4285714,18.9812438 12.4285714,17.6663095 C12.4285714,16.3520895 13.4949467,15.2857143 14.8098809,15.2857143 C16.1248152,15.2857143 17.1904762,16.3520895 17.1904762,17.6663095 C17.1904762,18.9812438 16.1248152,20.047619 14.8098809,20.047619" id="Fill-117"></path>
                            <path d="M27.1904762,20.047619 C25.8753447,20.047619 24.8095238,18.9812438 24.8095238,17.6663095 C24.8095238,16.3520895 25.8753447,15.2857143 27.1904762,15.2857143 C28.5056077,15.2857143 29.5714286,16.3520895 29.5714286,17.6663095 C29.5714286,18.9812438 28.5056077,20.047619 27.1904762,20.047619" id="Fill-118"></path>
                        </g>
                    </g>
                </g>
            </g>
        </g>
    </g>
</svg>