<?xml version="1.0" encoding="UTF-8"?>
<svg width="42px" height="42px" viewBox="0 0 42 42" version="1.1" xmlns="http://www.w3.org/2000/svg" xmlns:xlink="http://www.w3.org/1999/xlink">
    <!-- Generator: Sketch 61.2 (89653) - https://sketch.com -->
    <title>Good</title>
    <desc>Created with Sketch.</desc>
    <g id="Page-1" stroke="none" stroke-width="1" fill="none" fill-rule="evenodd">
        <g id="3e-Listing-Detail-Review" transform="translate(-762.000000, -943.000000)" fill="#44C1E0">
            <g id="Group-15" transform="translate(237.000000, 878.000000)">
                <g id="Good" transform="translate(525.000000, 60.000000)">
                    <g id="Group-23" transform="translate(0.000000, 5.000000)">
                        <g id="Good">
                            <path d="M41.9971295,21.3507719 C41.8098345,32.7868809 32.4807483,42 21,42 C9.40210122,42 0,32.5978988 0,21 C0,9.40210122 9.40210122,0 21,0 C32.4807483,0 41.8098345,9.21311908 41.9971295,20.6492281 L42,21 L41.9971295,21.3507719 Z M39.9970575,20.6622027 C39.8168311,10.3247151 31.3804978,2 21,2 C10.5066707,2 2,10.5066707 2,21 C2,31.4933293 10.5066707,40 21,40 C31.3804978,40 39.8168311,31.6752849 39.9970575,21.3377973 L40,21 L39.9970575,20.6622027 Z" id="Fill-107" fill-rule="nonzero"></path>
                            <path d="M21.0034394,30 C17.2344598,30 13.739602,28.4479519 11.2990588,25.8804961 C10.6164877,25.1627208 11.1819128,24 12.1924929,24 L12.1963977,24 C12.5337784,24 12.8477299,24.1450582 13.0765552,24.3833145 C15.0781911,26.4735062 17.9232787,27.7452086 21.0034394,27.7452086 C24.0765713,27.7452086 26.9240018,26.472003 28.9279806,24.3825629 C29.156806,24.1450582 29.4707574,24 29.8073572,24 C30.8187182,24 31.3833623,25.1634724 30.7007912,25.8812477 C28.2579051,28.4464487 24.7630473,30 21.0034394,30" id="Fill-116"></path>
                            <path d="M14.500375,20 C13.119694,20 12,18.880306 12,17.499625 C12,16.119694 13.119694,15 14.500375,15 C15.8810559,15 17,16.119694 17,17.499625 C17,18.880306 15.8810559,20 14.500375,20" id="Fill-117"></path>
                            <path d="M27.5,20 C26.1191119,20 25,18.880306 25,17.499625 C25,16.119694 26.1191119,15 27.5,15 C28.8808881,15 30,16.119694 30,17.499625 C30,18.880306 28.8808881,20 27.5,20" id="Fill-118"></path>
                        </g>
                    </g>
                </g>
            </g>
        </g>
    </g>
</svg>