<?xml version="1.0" encoding="UTF-8"?>
<svg width="42px" height="42px" viewBox="0 0 42 42" version="1.1" xmlns="http://www.w3.org/2000/svg" xmlns:xlink="http://www.w3.org/1999/xlink">
    <!-- Generator: Sketch 61.2 (89653) - https://sketch.com -->
    <title>Normal</title>
    <desc>Created with Sketch.</desc>
    <g id="Page-1" stroke="none" stroke-width="1" fill="none" fill-rule="evenodd">
        <g id="3e-Listing-Detail-Review" transform="translate(-762.000000, -1001.000000)" fill="#FACD34">
            <g id="Group-15" transform="translate(237.000000, 878.000000)">
                <g id="Normal" transform="translate(525.000000, 118.000000)">
                    <g id="Group-23" transform="translate(0.000000, 5.000000)">
                        <g id="Normal">
                            <path d="M41.9971295,21.3507719 C41.8098345,32.7868809 32.4807483,42 21,42 C9.40210122,42 0,32.5978988 0,21 C0,9.40210122 9.40210122,0 21,0 C32.4807483,0 41.8098345,9.21311908 41.9971295,20.6492281 L42,21 L41.9971295,21.3507719 Z M39.9970575,20.6622027 C39.8168311,10.3247151 31.3804978,2 21,2 C10.5066707,2 2,10.5066707 2,21 C2,31.4933293 10.5066707,40 21,40 C31.3804978,40 39.8168311,31.6752849 39.9970575,21.3377973 L40,21 L39.9970575,20.6622027 Z" id="Fill-107" fill-rule="nonzero"></path>
                            <path d="M31.9545455,27 L11.0454545,27 C10.4676667,27 10,26.552 10,26 C10,25.448 10.4676667,25 11.0454545,25 L31.9545455,25 C32.5316364,25 33,25.448 33,26 C33,26.552 32.5316364,27 31.9545455,27" id="Fill-106"></path>
                            <path d="M14.500375,19 C13.119694,19 12,17.880306 12,16.499625 C12,15.119694 13.119694,14 14.500375,14 C15.8810559,14 17,15.119694 17,16.499625 C17,17.880306 15.8810559,19 14.500375,19" id="Fill-117"></path>
                            <path d="M27.5,19 C26.1191119,19 25,17.880306 25,16.499625 C25,15.119694 26.1191119,14 27.5,14 C28.8808881,14 30,15.119694 30,16.499625 C30,17.880306 28.8808881,19 27.5,19" id="Fill-118"></path>
                        </g>
                    </g>
                </g>
            </g>
        </g>
    </g>
</svg>