<?xml version="1.0" encoding="UTF-8"?>
<svg width="42px" height="42px" viewBox="0 0 42 42" version="1.1" xmlns="http://www.w3.org/2000/svg" xmlns:xlink="http://www.w3.org/1999/xlink">
    <!-- Generator: Sketch 61.2 (89653) - https://sketch.com -->
    <title>Terrible</title>
    <desc>Created with Sketch.</desc>
    <g id="Page-1" stroke="none" stroke-width="1" fill="none" fill-rule="evenodd">
        <g id="3e-Listing-Detail-Review" transform="translate(-762.000000, -1117.000000)" fill="#F45F60">
            <g id="Group-15" transform="translate(237.000000, 878.000000)">
                <g id="Terrible" transform="translate(525.000000, 234.000000)">
                    <g id="Group-23" transform="translate(0.000000, 5.000000)">
                        <g id="Group">
                            <g id="Terrible">
                                <path d="M41.9971295,21.3507719 C41.8098345,32.7868809 32.4807483,42 21,42 C9.40210122,42 0,32.5978988 0,21 C0,9.40210122 9.40210122,0 21,0 C32.4807483,0 41.8098345,9.21311908 41.9971295,20.6492281 L42,21 L41.9971295,21.3507719 Z M39.9970575,20.6622027 C39.8168311,10.3247151 31.3804978,2 21,2 C10.5066707,2 2,10.5066707 2,21 C2,31.4933293 10.5066707,40 21,40 C31.3804978,40 39.8168311,31.6752849 39.9970575,21.3377973 L40,21 L39.9970575,20.6622027 Z" id="Fill-107" fill-rule="nonzero"></path>
                                <path d="M21.4402987,21.3857887 C26.5918983,21.3605887 31.2078179,24.6041884 32.9271778,29.456988 C33.1258977,30.0193079 32.8314178,30.6363479 32.2698178,30.8357879 C31.7053379,31.0359478 31.0897379,30.7393079 30.8902979,30.1784279 C29.4783781,26.1903483 25.6846984,23.5249085 21.4510987,23.5457885 C17.2484591,23.5659485 13.4907794,26.2421882 12.0997395,30.2050679 C11.9024596,30.7673879 11.2868596,31.0647478 10.7223797,30.8667478 C10.1600597,30.6687479 9.86341974,30.0524279 10.0614197,29.489388 C11.7548596,24.6675484 16.3275792,21.4109887 21.4402987,21.3857887" id="Fill-120"></path>
                                <path d="M17.8417684,14.4473091 C17.8482191,15.772829 16.7790191,16.8521089 15.4534993,16.8586182 C14.1279794,16.8650689 13.0479795,15.795869 13.0414702,14.4703491 C13.0350195,13.1448292 14.1049394,12.0655493 15.4297393,12.05904 C16.7552591,12.0525893 17.8352591,13.1217892 17.8417684,14.4473091" id="Fill-121"></path>
                                <path d="M25.0417091,14.4120291 C25.0482184,15.737549 26.1274983,16.8067489 27.4530182,16.8002982 C28.7785381,16.7937889 29.847738,15.713789 29.8412873,14.3882691 C29.834778,13.0627492 28.7547781,11.9935493 27.4299782,12 C26.1044583,12.0065093 25.0352584,13.0865092 25.0417091,14.4120291" id="Fill-122"></path>
                            </g>
                        </g>
                    </g>
                </g>
            </g>
        </g>
    </g>
</svg>