<svg xmlns="http://www.w3.org/2000/svg" width="24" height="24" viewBox="0 0 24 24">
    <path fill="none" fill-rule="evenodd" stroke="#CDCFD0" stroke-linecap="round" stroke-linejoin="round" stroke-width="1.333" d="M13.388 5.823a4.783 4.783 0 0 1 3.782 3.774M13.388 2A8.61 8.61 0 0 1 21 9.588m-.957 7.626v2.867a1.917 1.917 0 0 1-2.087 1.911 18.972 18.972 0 0 1-8.264-2.934 18.653 18.653 0 0 1-5.745-5.734 18.89 18.89 0 0 1-2.94-8.285 1.909 1.909 0 0 1 .494-1.46 1.917 1.917 0 0 1 1.412-.623h2.873c.96-.01 1.78.693 1.915 1.643.12.918.346 1.819.67 2.686A1.909 1.909 0 0 1 7.94 9.3l-1.216 1.214a15.305 15.305 0 0 0 5.745 5.734l1.216-1.214a1.918 1.918 0 0 1 2.02-.43c.869.324 1.771.548 2.69.669.963.136 1.672.97 1.648 1.94z"/>
</svg>
